<?xml version="1.0" encoding="utf-8"?>
<!-- Generator: Adobe Illustrator 21.1.0, SVG Export Plug-In . SVG Version: 6.00 Build 0)  -->
<svg version="1.1" id="Capa_1" xmlns="http://www.w3.org/2000/svg" xmlns:xlink="http://www.w3.org/1999/xlink" x="0px" y="0px"
	 viewBox="0 0 206 113" style="enable-background:new 0 0 206 113;" xml:space="preserve">
<style type="text/css">
	.st0{fill:#1B1B1B;}
</style>
<g>
	<path class="st0" d="M197.6,62.2c-2.5,0-4.4,2-4.4,4.4v21.1h-54V66.6c0-2.5-2-4.4-4.4-4.4s-4.4,2-4.4,4.4v21.1h-54V66.6
		c0-2.5-2-4.4-4.4-4.4c-2.5,0-4.4,2-4.4,4.4v21.1h-54V66.6c0-2.5-2-4.4-4.4-4.4s-4.4,2-4.4,4.4v39c0,2.5,2,4.4,4.4,4.4
		c2.5,0,4.4-2,4.4-4.4v-9h54v9c0,2.5,2,4.4,4.4,4.4c2.5,0,4.4-2,4.4-4.4v-9h54v9c0,2.5,2,4.4,4.4,4.4c2.5,0,4.4-2,4.4-4.4v-9h54v9
		c0,2.5,2,4.4,4.4,4.4s4.4-2,4.4-4.4v-39C202,64.2,200.1,62.2,197.6,62.2z"/>
	<path class="st0" d="M166.2,43.2c9.5,0,17.3,7.8,17.3,17.3v17.8h-34.6V60.6C148.9,51,156.6,43.2,166.2,43.2 M166.2,37.4
		c-12.7,0-23.1,10.4-23.1,23.1v19.1c0,2.5,2,4.4,4.4,4.4h37.3c2.5,0,4.4-2,4.4-4.4V60.6C189.3,47.8,178.9,37.4,166.2,37.4
		L166.2,37.4z"/>
	<path class="st0" d="M59.3,84.1c2.5,0,4.4-2,4.4-4.4V60.6c0-12.7-10.4-23.1-23.1-23.1S17.5,47.8,17.5,60.6v19.1
		c0,2.5,2,4.4,4.4,4.4H59.3z"/>
	<path class="st0" d="M122.3,84.1c2.5,0,4.4-2,4.4-4.4V60.6c0-12.7-10.4-23.1-23.1-23.1S80.6,47.8,80.6,60.6v19.1
		c0,2.5,2,4.4,4.4,4.4H122.3z"/>
	<circle class="st0" cx="40.7" cy="19.2" r="16.2"/>
	<circle class="st0" cx="103.7" cy="19.2" r="16.2"/>
</g>
</svg>
